<svg width="30.012085" height="26.370117" viewBox="0 0 30.0121 26.3701" fill="none" xmlns="http://www.w3.org/2000/svg" xmlns:xlink="http://www.w3.org/1999/xlink">
	<desc>
			Created with Pixso.
	</desc>
	<defs/>
	<path id="Vector" d="M21.881 0C20.4735 0.0219727 19.0966 0.414795 17.8895 1.13916C16.6824 1.86328 15.6877 2.89331 15.006 4.125C14.3243 2.89331 13.3297 1.86328 12.1226 1.13916C10.9155 0.414795 9.53864 0.0219727 8.13104 0C5.88721 0.0974121 3.77319 1.0791 2.25079 2.73022C0.728394 4.38159 -0.0786133 6.56812 0.00604248 8.8125C0.00604248 14.4963 5.98853 20.7039 11.006 24.9126C12.1263 25.854 13.5427 26.3701 15.006 26.3701C16.4694 26.3701 17.8858 25.854 19.006 24.9126C24.0236 20.7039 30.006 14.4963 30.006 8.8125C30.0908 6.56812 29.2838 4.38159 27.7614 2.73022C26.2389 1.0791 24.1249 0.0974121 21.881 0ZM17.3998 23C16.7298 23.5642 15.882 23.8735 15.006 23.8735C14.1301 23.8735 13.2823 23.5642 12.6123 23C6.18982 17.6113 2.50604 12.4412 2.50604 8.8125C2.42059 7.23096 2.96399 5.67969 4.01776 4.49707C5.07147 3.3147 6.55011 2.59668 8.13104 2.5C9.71204 2.59668 11.1906 3.3147 12.2443 4.49707C13.2981 5.67969 13.8415 7.23096 13.756 8.8125C13.756 9.14404 13.8878 9.46191 14.1222 9.69629C14.3566 9.93091 14.6745 10.0625 15.006 10.0625C15.3376 10.0625 15.6555 9.93091 15.89 9.69629C16.1243 9.46191 16.256 9.14404 16.256 8.8125C16.1706 7.23096 16.714 5.67969 17.7678 4.49707C18.8215 3.3147 20.3001 2.59668 21.881 2.5C23.462 2.59668 24.9406 3.3147 25.9943 4.49707C27.0481 5.67969 27.5915 7.23096 27.506 8.8125C27.506 12.4412 23.8223 17.6113 17.3998 22.9951L17.3998 23Z" fill="#031412" fill-opacity="1.000000" fill-rule="nonzero"/>
</svg>
